# xmcd CD database file
#
# Track frame offsets:
#	150
#	20658
#	40338
#	60846
#
# Disc length: 1067 seconds
#
# Revision: 1
# Processed by: cddbd v1.5.2PL0 Copyright (c) Steve Scherf et al.
# Submitted via: CDex 1.70beta2
#
DISCID=29042904
DTITLE=落合祐里香 - 赤い鳥
DYEAR=2009
DGENRE=J-POP(J)
TTITLE0=赤い鳥
TTITLE1=アマオト
TTITLE2=赤い鳥 (Inst.)
TTITLE3=アマオト (Inst.)
EXTD=YEAR: 2009
EXTT0=
EXTT1=
EXTT2=
EXTT3=
PLAYORDER=
